<?xml version="1.0" encoding="UTF-8"?>
<svg id="a" data-name="Layer 1" xmlns="http://www.w3.org/2000/svg" viewBox="0 0 678.85 224.51">
  <defs>
    <style>
      .b {
        letter-spacing: .21em;
      }

      .c {
        letter-spacing: .21em;
      }

      .d {
        letter-spacing: .21em;
      }

      .e {
        letter-spacing: .21em;
      }

      .f {
        letter-spacing: .22em;
      }

      .g, .h {
        fill: #2e2e2e;
      }

      .i {
        letter-spacing: .18em;
      }

      .j {
        letter-spacing: .18em;
      }

      .k {
        letter-spacing: .18em;
      }

      .l {
        letter-spacing: .23em;
      }

      .h {
        font-family: Satoshi-Light, Satoshi;
        font-size: 78px;
        font-weight: 300;
      }
    </style>
  </defs>
  <path class="g" d="m263.19,2h-15.17c-3.26,0-6.2,2-7.38,5.04l-50.43,128.96h23.8l12.2-33.7c.85-2.34,3.07-3.9,5.56-3.9h46.6c2.5,0,4.73,1.57,5.57,3.92l12.08,33.68h25L270.57,7.04c-1.19-3.04-4.12-5.04-7.38-5.04Zm-28.09,75.74l18.08-49.94c.68-1.89,3.36-1.89,4.04,0l17.9,49.93c.18.51-.2,1.06-.74,1.06h-38.53c-.55,0-.93-.54-.74-1.06Z"/>
  <path class="g" d="m474.33,2.93v132.14c0,.51-.42.93-.93.93h-20.74c-.51,0-.93-.42-.93-.93v-56.54c0-.51-.42-.93-.93-.93h-62.54c-.51,0-.93.42-.93.93v56.54c0,.51-.42.93-.93.93h-20.74c-.51,0-.93-.42-.93-.93V2.93c0-.51.42-.93.93-.93h20.74c.51,0,.93.42.93.93v53.74c0,.51.42.93.93.93h62.54c.51,0,.93-.42.93-.93V2.93c0-.51.42-.93.93-.93h20.74c.51,0,.93.42.93.93Z"/>
  <path class="g" d="m593.99,137.8c-9.87,0-18.83-1.77-26.9-5.3-8.07-3.53-15.04-8.43-20.9-14.7-5.87-6.27-10.37-13.57-13.5-21.9-3.13-8.33-4.7-17.37-4.7-27.1s1.57-18.57,4.7-26.9c3.13-8.33,7.63-15.63,13.5-21.9,5.87-6.27,12.83-11.17,20.9-14.7,8.07-3.53,17.03-5.3,26.9-5.3s18.83,1.77,26.9,5.3c8.07,3.53,15,8.43,20.8,14.7,5.8,6.27,10.3,13.57,13.5,21.9,3.2,8.33,4.8,17.3,4.8,26.9s-1.6,18.77-4.8,27.1c-3.2,8.33-7.7,15.63-13.5,21.9-5.8,6.27-12.73,11.17-20.8,14.7-8.07,3.53-17.03,5.3-26.9,5.3Zm0-21.6c9.33,0,17.13-2,23.4-6,6.27-4,11-9.6,14.2-16.8,3.2-7.2,4.8-15.4,4.8-24.6s-1.6-17.33-4.8-24.4c-3.2-7.07-7.93-12.63-14.2-16.7-6.27-4.07-14.07-6.1-23.4-6.1s-16.97,2.03-23.3,6.1c-6.33,4.07-11.07,9.63-14.2,16.7-3.13,7.07-4.7,15.2-4.7,24.4s1.57,17.4,4.7,24.6c3.13,7.2,7.87,12.8,14.2,16.8,6.33,4,14.1,6,23.3,6Z"/>
  <text class="h" transform="translate(0 207.74)"><tspan class="b" x="0" y="0">M</tspan><tspan class="e" x="80.12" y="0">AN</tspan><tspan class="i" x="215.54" y="0">A</tspan><tspan class="f" x="278.7" y="0">G</tspan><tspan class="k" x="353.2" y="0">E</tspan><tspan class="d" x="411.65" y="0">M</tspan><tspan class="j" x="491.68" y="0">E</tspan><tspan class="c" x="550.12" y="0">N</tspan><tspan class="l" x="620.51" y="0">T</tspan></text>
  <path class="g" d="m146.02,6.1v128.95c0,.52-.43.95-.95.95h-17.53c-.52,0-.95-.43-.95-.95V29.5c-12.36,22.1-24.71,44.18-37.07,66.28-.7,1.26-2.03,2.03-3.47,2.03h-18.24c-1.38,0-2.64-.73-3.32-1.93C51.71,73.27,26.58,28.8,26.58,28.8l.04,106.25c0,.52-.43.95-.95.95H8.13c-.52,0-.95-.43-.95-.95V6.1c0-2.26,1.84-4.1,4.1-4.1h20.09c2.22,0,4.27,1.22,5.33,3.17,12.76,23.53,25.52,47.04,38.28,70.56.86,1.58,3.13,1.58,3.99,0,12.76-23.52,25.52-47.03,38.28-70.56,1.06-1.95,3.1-3.17,5.33-3.17h19.33c2.26,0,4.1,1.84,4.1,4.1Z"/>
</svg>