<?xml version="1.0" encoding="utf-8"?>
<!-- Generator: Adobe Illustrator 27.8.0, SVG Export Plug-In . SVG Version: 6.00 Build 0)  -->
<svg version="1.1" id="a" xmlns="http://www.w3.org/2000/svg" xmlns:xlink="http://www.w3.org/1999/xlink" x="0px" y="0px"
	 viewBox="0 0 678.8 224.5" style="enable-background:new 0 0 678.8 224.5;" xml:space="preserve">
<style type="text/css">
	.st0{fill:#2E2E2E;}
	.st1{enable-background:new    ;}
</style>
<path class="st0" d="M263.2,2H248c-3.3,0-6.2,2-7.4,5l-50.4,129H214l12.2-33.7c0.9-2.3,3.1-3.9,5.6-3.9h46.6c2.5,0,4.7,1.6,5.6,3.9
	L296,136h25L270.6,7C269.4,4,266.5,2,263.2,2z M235.1,77.7l18.1-49.9c0.7-1.9,3.4-1.9,4,0l17.9,49.9c0.2,0.5-0.2,1.1-0.7,1.1h-38.5
	C235.3,78.8,234.9,78.2,235.1,77.7L235.1,77.7z"/>
<path class="st0" d="M474.3,2.9v132.1c0,0.5-0.4,0.9-0.9,0.9h-20.7c-0.5,0-0.9-0.4-0.9-0.9V78.5c0-0.5-0.4-0.9-0.9-0.9h-62.5
	c-0.5,0-0.9,0.4-0.9,0.9v56.5c0,0.5-0.4,0.9-0.9,0.9h-20.7c-0.5,0-0.9-0.4-0.9-0.9V2.9c0-0.5,0.4-0.9,0.9-0.9h20.7
	c0.5,0,0.9,0.4,0.9,0.9v53.7c0,0.5,0.4,0.9,0.9,0.9h62.5c0.5,0,0.9-0.4,0.9-0.9V2.9c0-0.5,0.4-0.9,0.9-0.9h20.7
	C473.9,2,474.3,2.4,474.3,2.9z"/>
<path class="st0" d="M594,137.8c-9.9,0-18.8-1.8-26.9-5.3s-15-8.4-20.9-14.7c-5.9-6.3-10.4-13.6-13.5-21.9S528,78.5,528,68.8
	s1.6-18.6,4.7-26.9s7.6-15.6,13.5-21.9S559,8.8,567.1,5.3S584.1,0,594,0s18.8,1.8,26.9,5.3s15,8.4,20.8,14.7s10.3,13.6,13.5,21.9
	s4.8,17.3,4.8,26.9s-1.6,18.8-4.8,27.1s-7.7,15.6-13.5,21.9c-5.8,6.3-12.7,11.2-20.8,14.7S603.9,137.8,594,137.8z M594,116.2
	c9.3,0,17.1-2,23.4-6s11-9.6,14.2-16.8s4.8-15.4,4.8-24.6s-1.6-17.3-4.8-24.4s-7.9-12.6-14.2-16.7s-14.1-6.1-23.4-6.1
	s-17,2-23.3,6.1s-11.1,9.6-14.2,16.7s-4.7,15.2-4.7,24.4s1.6,17.4,4.7,24.6s7.9,12.8,14.2,16.8S584.8,116.2,594,116.2z"/>
<g class="st1">
	<path class="st0" d="M7,207.7v-55.4h3.7L32,203.2l21.1-50.9h3.8v55.4h-3.7v-30.3c0-9,0.2-13.7,0.4-17.4l-19.7,47.7h-3.7l-19.7-47.5
		c0.2,1.6,0.4,8,0.4,17.2v30.3H7z"/>
</g>
<g class="st1">
	<path class="st0" d="M81.3,207.7l20.5-55.4h5.5l20.7,55.4h-3.8l-5.9-15.5H90.8L85,207.7H81.3z M92.1,188.8h25.1L105,156.3
		c-0.2-0.5-0.4-1-0.5-1.4c-0.1,0.3-0.3,1-0.5,1.4L92.1,188.8z"/>
	<path class="st0" d="M152.6,207.7v-55.4h3.8l32.4,49.1v-49.1h3.7v55.4h-3.7l-32.5-49.2v49.2H152.6z"/>
</g>
<g class="st1">
	<path class="st0" d="M216.7,207.7l20.5-55.4h5.5l20.7,55.4h-3.8l-5.9-15.5h-27.6l-5.8,15.5H216.7z M227.5,188.8h25.1l-12.2-32.4
		c-0.2-0.5-0.4-1-0.5-1.4c-0.1,0.3-0.3,1-0.5,1.4L227.5,188.8z"/>
</g>
<g class="st1">
	<path class="st0" d="M286,180.2c0,15.3,9.1,24.9,22.6,24.9c9,0,19.6-4.1,19.6-19.3v-4h-21.5v-3.4h25.1v29.5H329l-0.5-10
		c-2.9,6.1-10.1,10.8-19.7,10.8c-15.8,0-26.6-11.2-26.6-28.4c0-17,10.7-28.9,26.2-28.9c11.2,0,20,6.3,22.4,15.8h-4.1
		c-2.6-8-9.5-12.2-18.3-12.2C294.9,155,286,165.2,286,180.2z"/>
</g>
<g class="st1">
	<path class="st0" d="M360.2,207.7v-55.4h32.5v3.4H364v22.5h26.2v3.4H364v22.6h28.9v3.4H360.2z"/>
</g>
<g class="st1">
	<path class="st0" d="M418.7,207.7v-55.4h3.7l21.2,50.9l21.1-50.9h3.8v55.4h-3.7v-30.3c0-9,0.2-13.7,0.4-17.4l-19.7,47.7h-3.7
		L422,160.2c0.2,1.6,0.4,8,0.4,17.2v30.3H418.7z"/>
</g>
<g class="st1">
	<path class="st0" d="M498.7,207.7v-55.4h32.5v3.4h-28.8v22.5h26.2v3.4h-26.2v22.6h28.9v3.4H498.7z"/>
</g>
<g class="st1">
	<path class="st0" d="M557.1,207.7v-55.4h3.8l32.4,49.1v-49.1h3.7v55.4h-3.7l-32.5-49.2v49.2H557.1z"/>
</g>
<g class="st1">
	<path class="st0" d="M621.3,152.4h38.5v3.4h-17.4v52h-3.7v-52h-17.4V152.4z"/>
</g>
<path class="st0" d="M146,6.1v128.9c0,0.5-0.4,0.9-0.9,0.9h-17.5c-0.5,0-0.9-0.4-0.9-0.9V29.5c-12.4,22.1-24.7,44.2-37.1,66.3
	c-0.7,1.3-2,2-3.5,2H67.8c-1.4,0-2.6-0.7-3.3-1.9C51.7,73.3,26.6,28.8,26.6,28.8l0,106.2c0,0.5-0.4,0.9-1,0.9H8.1
	c-0.5,0-0.9-0.4-0.9-0.9V6.1C7.2,3.8,9,2,11.3,2h20.1c2.2,0,4.3,1.2,5.3,3.2c12.8,23.5,25.5,47,38.3,70.6c0.9,1.6,3.1,1.6,4,0
	c12.8-23.5,25.5-47,38.3-70.6c1.1-2,3.1-3.2,5.3-3.2h19.3C144.2,2,146,3.8,146,6.1L146,6.1z"/>
</svg>
